<?xml version="1.0" encoding="UTF-8" standalone="no"?>
<!DOCTYPE svg PUBLIC "-//W3C//DTD SVG 1.1//EN" "http://www.w3.org/Graphics/SVG/1.1/DTD/svg11.dtd">
<svg version="1.1" xmlns="http://www.w3.org/2000/svg" xmlns:xlink="http://www.w3.org/1999/xlink" preserveAspectRatio="xMidYMid meet" viewBox="0 0 86 86" width="86" height="86"><defs><path d="M10.32 84.59C16.93 84.59 69.84 84.59 76.46 84.59C81.68 84.59 85.77 80.49 85.77 75.28C85.77 68.76 85.77 16.59 85.77 10.07C85.77 4.85 81.68 0.75 76.46 0.75C63.23 0.75 16.93 0.75 10.32 0.75C5.1 0.75 1 4.85 1 10.07C1 16.59 1 68.76 1 75.28C1 80.49 5.1 84.59 10.32 84.59Z" id="bifPCrUDb"></path><linearGradient id="gradientaJcelsf53" gradientUnits="userSpaceOnUse" x1="43.39" y1="0.75" x2="43.39" y2="84.59"><stop style="stop-color: #113cec;stop-opacity: 1" offset="0%"></stop><stop style="stop-color: #676af9;stop-opacity: 1" offset="100%"></stop></linearGradient><path d="M36.4 66.34C27.56 66.34 22.66 66.34 21.68 66.34C21.68 37.94 21.68 22.17 21.68 19.01C37.22 19.01 45.86 19.01 47.58 19.01C52.99 19.01 57.27 20.5 60.44 23.67C63.61 26.84 65.1 30.56 65.1 35.22C65.1 38.95 64.16 41.93 62.49 44.35C60.81 46.77 58.76 48.45 56.34 49.57C56.92 50.69 59.84 56.28 65.1 66.34C63.97 66.34 58.39 66.34 48.33 66.34C47.88 65.34 45.64 60.37 41.62 51.43C41.27 51.43 39.53 51.43 36.4 51.43C36.4 60.38 36.4 65.35 36.4 66.34ZM45.16 31.5C44.56 31.5 41.58 31.5 36.22 31.5C36.22 32 36.22 34.48 36.22 38.95C41.58 38.95 44.56 38.95 45.16 38.95C46.77 38.7 47.89 38.39 48.51 38.02C49.45 37.46 49.82 36.53 49.82 35.22C49.82 34.1 49.45 33.17 48.51 32.43C47.58 31.87 46.46 31.5 45.16 31.5Z" id="a8uEga1N"></path><path d="M224.58 20.31L233.52 36.34L242.47 20.31L259.05 20.31L240.98 48.82L240.98 67.64L226.26 67.64L226.26 48.82L208 20.31L224.58 20.31Z" id="a2BSB3LWsn"></path><path d="M224.58 20.31L233.52 36.34L242.47 20.31L259.05 20.31L240.98 48.82L240.98 67.64L226.26 67.64L226.26 48.82L208 20.31L224.58 20.31Z" id="crAwx6epc"></path><path d="M14.64 52.54L14.64 40.87L34.64 40.87L34.64 52.54L14.64 52.54Z" id="a5hc4fd9Kg"></path><path d="M14.64 52.54L14.64 40.87L34.64 40.87L34.64 52.54L14.64 52.54Z" id="abdIftrPM"></path><path d="M14.64 52.54L14.64 40.87L34.64 40.87L34.64 52.54L14.64 52.54Z" id="f66Lr9zeFt"></path><path d="M14.64 52.54L14.64 40.87L34.64 40.87L34.64 52.54L14.64 52.54Z" id="b3XHn3hylI"></path></defs><g><g><g><use xlink:href="#bifPCrUDb" opacity="1" fill="url(#gradientaJcelsf53)"></use><g><use xlink:href="#bifPCrUDb" opacity="1" fill-opacity="0" stroke="#000000" stroke-width="1" stroke-opacity="0"></use></g></g><g><use xlink:href="#a8uEga1N" opacity="1" fill="#ffffff" fill-opacity="1"></use><g><use xlink:href="#a8uEga1N" opacity="1" fill-opacity="0" stroke="#000000" stroke-width="1" stroke-opacity="0"></use></g></g><g><use xlink:href="#a2BSB3LWsn" opacity="1" fill="#ffffff" fill-opacity="1"></use><g><use xlink:href="#a2BSB3LWsn" opacity="1" fill-opacity="0" stroke="#000000" stroke-width="1" stroke-opacity="0"></use></g></g><g><use xlink:href="#crAwx6epc" opacity="1" fill="#000000" fill-opacity="0"></use><g><use xlink:href="#crAwx6epc" opacity="1" fill-opacity="0" stroke="#000000" stroke-width="1" stroke-opacity="0"></use></g></g><g><use xlink:href="#a5hc4fd9Kg" opacity="1" fill="#ffffff" fill-opacity="1"></use><g><use xlink:href="#a5hc4fd9Kg" opacity="1" fill-opacity="0" stroke="#000000" stroke-width="1" stroke-opacity="0"></use></g></g><g><use xlink:href="#abdIftrPM" opacity="1" fill="#000000" fill-opacity="0"></use><g><use xlink:href="#abdIftrPM" opacity="1" fill-opacity="0" stroke="#000000" stroke-width="1" stroke-opacity="0"></use></g></g><g><use xlink:href="#f66Lr9zeFt" opacity="1" fill="#000000" fill-opacity="0"></use><g><use xlink:href="#f66Lr9zeFt" opacity="1" fill-opacity="0" stroke="#000000" stroke-width="1" stroke-opacity="0"></use></g></g><g><use xlink:href="#b3XHn3hylI" opacity="1" fill="#000000" fill-opacity="0"></use><g><use xlink:href="#b3XHn3hylI" opacity="1" fill-opacity="0" stroke="#000000" stroke-width="1" stroke-opacity="0"></use></g></g></g></g></svg>