<?xml version="1.0" encoding="UTF-8" standalone="no"?>
<!DOCTYPE svg PUBLIC "-//W3C//DTD SVG 1.1//EN" "http://www.w3.org/Graphics/SVG/1.1/DTD/svg11.dtd">
<svg version="1.1" xmlns="http://www.w3.org/2000/svg" xmlns:xlink="http://www.w3.org/1999/xlink" preserveAspectRatio="xMidYMid meet" viewBox="0 0 277 85" width="277" height="85"><defs><path d="M191.14 75.28C191.14 80.49 195.24 84.59 200.45 84.59C207.07 84.59 259.98 84.59 266.6 84.59C271.81 84.59 275.91 80.49 275.91 75.28C275.91 68.76 275.91 16.59 275.91 10.07C275.91 4.85 271.63 0.75 266.6 0.75C253.37 0.75 207.07 0.75 200.45 0.75C195.24 0.75 191.14 4.85 191.14 10.07C191.14 16.59 191.14 68.76 191.14 75.28Z" id="aPYkbaqZ9"></path><linearGradient id="gradientbrboi8Xpd" gradientUnits="userSpaceOnUse" x1="233.52" y1="0.75" x2="233.52" y2="84.59"><stop style="stop-color: #123ded;stop-opacity: 1" offset="0%"></stop><stop style="stop-color: #6669f8;stop-opacity: 1" offset="100%"></stop></linearGradient><path d="M96.21 75.28C96.21 80.49 100.31 84.59 105.52 84.59C112.14 84.59 165.05 84.59 171.67 84.59C176.88 84.59 180.98 80.49 180.98 75.28C180.98 68.76 180.98 16.59 180.98 10.07C181.17 4.85 176.88 0.75 171.85 0.75C158.59 0.75 112.16 0.75 105.52 0.75C100.31 0.75 96.21 4.85 96.21 10.07C96.21 16.59 96.21 68.76 96.21 75.28Z" id="b1EaK0aHkr"></path><linearGradient id="gradientad9z5wLPs" gradientUnits="userSpaceOnUse" x1="138.6" y1="0.75" x2="138.6" y2="84.59"><stop style="stop-color: #113cec;stop-opacity: 1" offset="0%"></stop><stop style="stop-color: #6669f8;stop-opacity: 1" offset="100%"></stop></linearGradient><path d="M1 75.28C1 80.49 5.1 84.59 10.32 84.59C16.93 84.59 69.84 84.59 76.46 84.59C81.68 84.59 85.77 80.49 85.77 75.28C85.77 68.76 85.77 16.59 85.77 10.07C85.77 4.85 81.68 0.75 76.46 0.75C63.23 0.75 16.93 0.75 10.32 0.75C5.1 0.75 1 4.85 1 10.07C1 16.59 1 68.76 1 75.28Z" id="gjmua5deM"></path><linearGradient id="gradientl6pfHv4B0j" gradientUnits="userSpaceOnUse" x1="43.39" y1="0.75" x2="43.39" y2="84.59"><stop style="stop-color: #113cec;stop-opacity: 1" offset="0%"></stop><stop style="stop-color: #676af9;stop-opacity: 1" offset="100%"></stop></linearGradient><path d="M36.4 51.43L36.4 66.34C27.56 66.34 22.66 66.34 21.68 66.34C21.68 37.94 21.68 22.17 21.68 19.01C37.22 19.01 45.86 19.01 47.58 19.01C52.99 19.01 57.27 20.5 60.44 23.67C63.61 26.84 65.1 30.56 65.1 35.22C65.1 38.95 64.16 41.93 62.49 44.35C60.81 46.77 58.76 48.45 56.34 49.57C56.92 50.69 59.84 56.28 65.1 66.34C63.97 66.34 58.39 66.34 48.33 66.34C47.88 65.34 45.64 60.37 41.62 51.43L36.4 51.43ZM48.51 32.43C47.58 31.87 46.46 31.5 45.16 31.5C44.56 31.5 41.58 31.5 36.22 31.5C36.22 32 36.22 34.48 36.22 38.95C41.58 38.95 44.56 38.95 45.16 38.95C46.77 38.7 47.89 38.39 48.51 38.02C49.45 37.46 49.82 36.53 49.82 35.22C49.82 34.1 49.45 33.17 48.51 32.43Z" id="b1EIl6r6RT"></path><path d="M131.54 62.05L129.86 67.64L113.28 67.64L131.17 20.31L149.61 20.31L167.31 67.64L150.73 67.64L149.05 62.05L131.54 62.05ZM145.14 49.56L140.3 34.29L135.45 49.56L145.14 49.56Z" id="b4XBhHL8M"></path><path d="M208 20.31L224.58 20.31L233.52 36.34L242.47 20.31L259.05 20.31L240.98 48.82L240.98 67.64L226.26 67.64L226.26 48.82L208 20.31Z" id="a1tQkmWewU"></path><path d="M34.64 52.54L14.64 52.54L14.64 40.87L34.64 40.87L34.64 52.54Z" id="a2XuBigavC"></path><path d="M34.64 52.54L14.64 52.54L14.64 40.87L34.64 40.87L34.64 52.54Z" id="hWTLOaHNv"></path></defs><g><g><g><use xlink:href="#aPYkbaqZ9" opacity="1" fill="url(#gradientbrboi8Xpd)"></use><g><use xlink:href="#aPYkbaqZ9" opacity="1" fill-opacity="0" stroke="#000000" stroke-width="1" stroke-opacity="0"></use></g></g><g><use xlink:href="#b1EaK0aHkr" opacity="1" fill="url(#gradientad9z5wLPs)"></use><g><use xlink:href="#b1EaK0aHkr" opacity="1" fill-opacity="0" stroke="#000000" stroke-width="1" stroke-opacity="0"></use></g></g><g><use xlink:href="#gjmua5deM" opacity="1" fill="url(#gradientl6pfHv4B0j)"></use><g><use xlink:href="#gjmua5deM" opacity="1" fill-opacity="0" stroke="#000000" stroke-width="1" stroke-opacity="0"></use></g></g><g><use xlink:href="#b1EIl6r6RT" opacity="1" fill="#ffffff" fill-opacity="1"></use><g><use xlink:href="#b1EIl6r6RT" opacity="1" fill-opacity="0" stroke="#000000" stroke-width="1" stroke-opacity="0"></use></g></g><g><use xlink:href="#b4XBhHL8M" opacity="1" fill="#ffffff" fill-opacity="1"></use><g><use xlink:href="#b4XBhHL8M" opacity="1" fill-opacity="0" stroke="#000000" stroke-width="1" stroke-opacity="0"></use></g></g><g><use xlink:href="#a1tQkmWewU" opacity="1" fill="#ffffff" fill-opacity="1"></use><g><use xlink:href="#a1tQkmWewU" opacity="1" fill-opacity="0" stroke="#000000" stroke-width="1" stroke-opacity="0"></use></g></g><g><use xlink:href="#a2XuBigavC" opacity="1" fill="#ffffff" fill-opacity="1"></use><g><use xlink:href="#a2XuBigavC" opacity="1" fill-opacity="0" stroke="#000000" stroke-width="1" stroke-opacity="0"></use></g></g><g><use xlink:href="#hWTLOaHNv" opacity="1" fill="#000000" fill-opacity="0"></use><g><use xlink:href="#hWTLOaHNv" opacity="1" fill-opacity="0" stroke="#000000" stroke-width="1" stroke-opacity="0"></use></g></g></g></g></svg>